<svg width="28" height="28" viewBox="0 0 28 28" fill="none" xmlns="http://www.w3.org/2000/svg">
<path fill-rule="evenodd" clip-rule="evenodd" d="M15 23.9C20.4676 23.9 24.9 19.4676 24.9 14C24.9 8.53245 20.4676 4.1 15 4.1C9.53245 4.1 5.1 8.53245 5.1 14C5.1 19.4676 9.53245 23.9 15 23.9ZM15 25C21.0753 25 26 20.0753 26 14C26 7.9247 21.0753 3 15 3C8.9247 3 4 7.9247 4 14C4 20.0753 8.9247 25 15 25Z" fill="white"/>
<path fill-rule="evenodd" clip-rule="evenodd" d="M8.9502 14C8.9502 13.8541 9.00814 13.7142 9.11129 13.6111C9.21443 13.508 9.35433 13.45 9.5002 13.45H20.5002C20.6461 13.45 20.786 13.508 20.8891 13.6111C20.9922 13.7142 21.0502 13.8541 21.0502 14C21.0502 14.1459 20.9922 14.2858 20.8891 14.3889C20.786 14.4921 20.6461 14.55 20.5002 14.55H9.5002C9.35433 14.55 9.21443 14.4921 9.11129 14.3889C9.00814 14.2858 8.9502 14.1459 8.9502 14Z" fill="white"/>
<path fill-rule="evenodd" clip-rule="evenodd" d="M14.9997 7.94995C15.1456 7.94995 15.2855 8.0079 15.3886 8.11104C15.4918 8.21419 15.5497 8.35408 15.5497 8.49995V19.5C15.5497 19.6458 15.4918 19.7857 15.3886 19.8889C15.2855 19.992 15.1456 20.0499 14.9997 20.0499C14.8538 20.0499 14.7139 19.992 14.6108 19.8889C14.5077 19.7857 14.4497 19.6458 14.4497 19.5V8.49995C14.4497 8.35408 14.5077 8.21419 14.6108 8.11104C14.7139 8.0079 14.8538 7.94995 14.9997 7.94995Z" fill="white"/>
</svg>
